<?xml version="1.0" encoding="utf-8"?>
<!-- Generator: Adobe Illustrator 25.1.0, SVG Export Plug-In . SVG Version: 6.00 Build 0)  -->
<svg version="1.1" id="Layer_1" xmlns="http://www.w3.org/2000/svg" xmlns:xlink="http://www.w3.org/1999/xlink" x="0px" y="0px"
	 viewBox="0 0 1006 283" style="enable-background:new 0 0 1006 283;" xml:space="preserve">
<style type="text/css">
	.st0{enable-background:new    ;}
	.st1{fill:#2D4323;}
</style>
<g class="st0">
	<path class="st1" d="M7.2,210.8V23.9c5.1-0.3,36.9-1.5,41.4-1.5c36,0,53.7,25.2,53.7,50.4c0,39-26.1,59.1-57.6,59.1
		c-7.2,0-13.5-0.3-19.8-1.5v80.4H7.2z M24.9,29v93.9c5.4,1.8,11.4,2.7,20.1,2.7c21,0,37.2-18,37.2-47.7C82.2,49.1,68.1,29,46.5,29
		H24.9z"/>
	<path class="st1" d="M122.1,144.2c0-42.9,24.3-74.4,58.2-74.4c31.5,0,55.2,27.6,55.2,70.2c0,42.9-24.3,74.4-58.2,74.4
		C145.8,214.4,122.1,186.8,122.1,144.2z M216.9,143c0-45-18.9-66.9-39-66.9c-20.7,0-37.2,23.7-37.2,65.1c0,45,18.9,66.9,39,66.9
		C200.4,208.1,216.9,184.4,216.9,143z"/>
	<path class="st1" d="M272.4,189.2c7.8,12.6,19.8,18.6,33.3,18.6c15.6,0,25.2-11.4,25.2-26.7c0-13.5-12.3-24-31.2-33
		c-23.4-11.1-33.9-23.4-33.9-42c0-20.4,14.1-35.7,42-35.7c14.7,0,27.3,5.7,36,12.3l-6.9,13.2c-6.6-11.4-18-19.5-30.9-19.5
		c-16.2,0-25.2,11.7-25.2,25.2c0,12,8.1,21.3,29.1,31.5c24.6,12,36,25.8,36,44.1c0,20.4-13.2,36.6-41.7,36.6
		c-13.2,0-28.8-4.2-38.7-11.4L272.4,189.2z"/>
	<path class="st1" d="M462.3,210.8v-96c0-23.4-11.7-33-25.8-33c-14.7,0-28.8,10.2-38.1,23.1v105.9h-16.2V7.1l16.2-5.4v90.9h1.5
		c12.3-14.4,26.7-22.8,42.6-22.8c24.3,0,36,18.3,36,42.3v98.7H462.3z"/>
	<path class="st1" d="M524.1,210.8V23.3h18v180.9h24.3c22.2,0,37.8-3.6,48.3-9v15.6H524.1z"/>
	<path class="st1" d="M730.5,199.7c-9.3,9.3-21.6,14.7-36.6,14.7c-35.4,0-57.6-28.8-57.6-70.5c0-43.2,22.8-74.1,56.7-74.1
		c28.8,0,45.9,24,45.9,50.1c0,4.2-0.3,9.9-0.6,14.4h-82.8c0,0-0.3,5.1-0.3,8.4c0,39.6,17.4,64.8,40.2,64.8c12,0,23.1-5.4,31.2-13.8
		L730.5,199.7z M722.1,128c0-37.8-15.3-52.2-30-52.2c-18.6,0-32.7,19.2-36.3,52.2H722.1z"/>
	<path class="st1" d="M843.3,210.8v-22.2h-1.8c-8.7,14.1-22.2,25.2-39,25.2c-18.9,0-34.8-12.3-34.8-33c0-25.2,26.7-44.4,69.9-55.8
		l5.7-1.5v-11.4c0-23.1-9.6-36-27-36c-13.5,0-28.8,10.8-36.6,27.6l-8.4-11.4c12-14.1,29.4-22.5,45.6-22.5c25.2,0,42.6,13.5,42.6,45
		v96H843.3z M843.3,130.1l-6,1.5c-33.3,8.4-52.2,27.6-52.2,44.7c0,16.8,11.1,25.5,23.4,25.5c12.6,0,26.1-11.1,34.8-26.7V130.1z"/>
</g>
<g class="st0">
	<path class="st1" d="M920.2,87.2h-22.5l1.5-6.6h21.9l3.9-24c5.1-32.1,19.2-51.3,44.7-51.3c10.2,0,21,5.4,27,12.3L990.1,29
		c-4.5-10.2-12.6-17.4-21.6-17.4c-12.9,0-22.2,10.5-26.4,37.8L937,80.6h37.5l-1.5,6.6h-36.9l-21.3,136.5
		c-6.3,40.8-19.2,55.8-42.6,55.8c-9.3,0-20.7-5.1-27-10.8l8.4-14.4c2.4,10.8,9.6,18.9,19.2,18.9c13.5,0,19.8-10.5,23.4-32.7
		L920.2,87.2z"/>
</g>
</svg>
